<svg width="507" height="399" viewBox="0 0 507 399" fill="none" xmlns="http://www.w3.org/2000/svg">
<rect x="102.131" y="252.359" width="128" height="73.9705" transform="rotate(45 102.131 252.359)" fill="black"/>
<path d="M422.382 356.5H374.798C373.654 356.5 372.931 357.729 373.487 358.728L394.042 395.728C394.307 396.205 394.809 396.5 395.354 396.5H439C439.828 396.5 440.5 395.828 440.5 395V372.794C440.5 372.366 440.317 371.959 439.997 371.674L423.38 356.88C423.105 356.635 422.75 356.5 422.382 356.5Z" fill="black" stroke="black" stroke-width="5"/>
<rect x="158" y="320" width="250" height="79" fill="black"/>
<path d="M163.119 347.5H354.704C356.222 347.5 356.78 349.495 355.483 350.282L312.659 376.282C312.425 376.425 312.155 376.5 311.881 376.5H120.296C118.778 376.5 118.22 374.505 119.517 373.718L162.341 347.718C162.575 347.575 162.845 347.5 163.119 347.5Z" fill="white" stroke="black" stroke-width="5"/>
<path d="M381.216 356.5H421.728C423.245 356.5 423.804 358.493 422.508 359.281L394.563 376.281C394.328 376.424 394.059 376.5 393.784 376.5H353.272C351.755 376.5 351.196 374.507 352.492 373.719L380.437 356.719C380.671 356.576 380.941 356.5 381.216 356.5Z" fill="white" stroke="black" stroke-width="5"/>
<rect x="382" y="322" width="1" height="1" fill="#C4C4C4"/>
<g filter="url(#filter0_d)">
<rect x="136" y="86" width="248" height="248" rx="41" fill="white"/>
<rect x="138.5" y="88.5" width="243" height="243" rx="38.5" stroke="black" stroke-width="5"/>
</g>
<rect x="160.5" y="110.5" width="199" height="199" rx="22.5" fill="#C4C4C4" stroke="black" stroke-width="5"/>
<rect x="182.5" y="110.5" width="177" height="199" rx="22.5" fill="black" stroke="black" stroke-width="5"/>
<path d="M463.5 192.875V243.125C463.5 266.283 445.351 285.203 422.5 286.436V149.564C445.351 150.797 463.5 169.717 463.5 192.875Z" fill="black" stroke="black" stroke-width="5"/>
<circle cx="269" cy="188" r="44" fill="white"/>
<path fill-rule="evenodd" clip-rule="evenodd" d="M246.124 180.953C248.14 184.147 251.702 186.269 255.758 186.269C262.047 186.269 267.145 181.171 267.145 174.883C267.145 171.46 265.635 168.39 263.244 166.303C264.432 166.104 265.652 166 266.896 166C278.99 166 288.793 175.803 288.793 187.897C288.793 199.99 278.99 209.793 266.896 209.793C254.803 209.793 245 199.99 245 187.897C245 185.47 245.395 183.135 246.124 180.953Z" fill="black"/>
<path d="M201 249.068C201 234.018 219.837 225.042 233.202 231.96C244.715 237.919 258.052 242.759 271 242.759C283.948 242.759 297.285 237.919 308.798 231.96C322.163 225.042 341 234.018 341 249.068V249.068C341 251.181 340.865 253.307 340.119 255.284C337.052 263.408 323.923 285 271 285C218.077 285 204.948 263.408 201.881 255.284C201.135 253.307 201 251.181 201 249.068V249.068Z" fill="white"/>
<path d="M218 250.133C218 250.133 238.294 266 270.5 266C302.706 266 323 249 323 249" stroke="black" stroke-width="5" stroke-linecap="round"/>
<path d="M120 376.5H311C311.828 376.5 312.5 377.172 312.5 378V389C312.5 393.142 309.142 396.5 305 396.5H126C121.858 396.5 118.5 393.142 118.5 389V378C118.5 377.172 119.172 376.5 120 376.5Z" fill="#C4C4C4" stroke="black" stroke-width="5"/>
<path d="M353 376.5H397C397.828 376.5 398.5 377.172 398.5 378V389C398.5 393.142 395.142 396.5 391 396.5H359C354.858 396.5 351.5 393.142 351.5 389V378C351.5 377.172 352.172 376.5 353 376.5Z" fill="#C4C4C4" stroke="black" stroke-width="5"/>
<line x1="187.5" y1="364.5" x2="272.5" y2="364.5" stroke="black" stroke-width="5" stroke-linecap="round"/>
<path d="M400.5 357L384 368" stroke="black" stroke-width="5" stroke-linecap="round"/>
<path d="M404 379.5C428.8 358.3 429.068 352.908 454.5 361C476.5 368 489 338 476.5 326C466.604 316.5 450.558 322.862 454.5 336C462 361 512.5 328.5 502.5 265C496.45 226.583 481.5 209.5 442.5 202" stroke="black" stroke-width="5"/>
<path d="M29.5 244.5H122.5V278.942C122.5 310.178 97.1779 335.5 65.9416 335.5C45.8155 335.5 29.5 319.185 29.5 299.058V244.5Z" fill="black" stroke="black" stroke-width="5"/>
<rect x="36.5" y="204.5" width="58" height="192" fill="#C4C4C4" stroke="black" stroke-width="5"/>
<rect x="83.5" y="167.5" width="14" height="229" fill="black" stroke="black" stroke-width="5"/>
<rect x="24.5" y="288.5" width="64" height="31" rx="15.5" fill="white" stroke="black" stroke-width="5"/>
<rect x="18.5" y="234.5" width="70" height="30" rx="15" fill="white" stroke="black" stroke-width="5"/>
<rect x="11.5" y="263.5" width="86" height="30" rx="15" fill="white" stroke="black" stroke-width="5"/>
<mask id="path-27-inside-1" fill="white">
<path fill-rule="evenodd" clip-rule="evenodd" d="M111.415 226.806C120.86 228.911 126.811 238.273 124.706 247.718C122.602 257.163 113.239 263.114 103.794 261.009L91.3559 258.238L75.7678 268.433C67.6697 273.73 56.8111 271.459 51.5144 263.361C46.2177 255.263 48.4887 244.404 56.5868 239.107L78.3549 224.87C82.6727 222.046 87.7753 221.373 92.4012 222.588C92.6606 222.633 92.9203 222.685 93.18 222.743L111.415 226.806Z"/>
</mask>
<path fill-rule="evenodd" clip-rule="evenodd" d="M111.415 226.806C120.86 228.911 126.811 238.273 124.706 247.718C122.602 257.163 113.239 263.114 103.794 261.009L91.3559 258.238L75.7678 268.433C67.6697 273.73 56.8111 271.459 51.5144 263.361C46.2177 255.263 48.4887 244.404 56.5868 239.107L78.3549 224.87C82.6727 222.046 87.7753 221.373 92.4012 222.588C92.6606 222.633 92.9203 222.685 93.18 222.743L111.415 226.806Z" fill="white"/>
<path d="M111.415 226.806L112.503 221.926L112.503 221.926L111.415 226.806ZM103.794 261.009L104.882 256.129L104.882 256.129L103.794 261.009ZM91.3559 258.238L92.4433 253.357L90.3844 252.899L88.619 254.053L91.3559 258.238ZM75.7678 268.433L78.5047 272.618L78.5047 272.618L75.7678 268.433ZM51.5144 263.361L47.3299 266.098L47.3299 266.098L51.5144 263.361ZM56.5868 239.107L59.3237 243.292L59.3237 243.292L56.5868 239.107ZM78.3549 224.87L81.0917 229.054L78.3549 224.87ZM92.4012 222.588L91.1311 227.424L91.3299 227.476L91.5323 227.512L92.4012 222.588ZM93.18 222.743L92.0926 227.623L92.0926 227.623L93.18 222.743ZM129.587 248.806C132.292 236.665 124.643 224.631 112.503 221.926L110.328 231.687C117.077 233.19 121.33 239.881 119.826 246.631L129.587 248.806ZM102.707 265.889C114.847 268.595 126.882 260.946 129.587 248.806L119.826 246.631C118.322 253.38 111.631 257.633 104.882 256.129L102.707 265.889ZM90.2685 263.118L102.707 265.889L104.882 256.129L92.4433 253.357L90.2685 263.118ZM88.619 254.053L73.0309 264.249L78.5047 272.618L94.0928 262.422L88.619 254.053ZM73.0309 264.249C67.2438 268.034 59.484 266.411 55.6988 260.624L47.3299 266.098C54.1382 276.507 68.0956 279.426 78.5047 272.618L73.0309 264.249ZM55.6988 260.624C51.9136 254.837 53.5366 247.077 59.3237 243.292L53.8499 234.923C43.4408 241.731 40.5217 255.689 47.3299 266.098L55.6988 260.624ZM59.3237 243.292L81.0917 229.054L75.618 220.685L53.8499 234.923L59.3237 243.292ZM81.0917 229.054C84.1771 227.036 87.8152 226.553 91.1311 227.424L93.6713 217.752C87.7354 216.193 81.1683 217.055 75.618 220.685L81.0917 229.054ZM94.2674 217.863C93.9352 217.789 93.6027 217.722 93.2701 217.664L91.5323 227.512C91.7186 227.544 91.9054 227.582 92.0926 227.623L94.2674 217.863ZM112.503 221.926L94.2674 217.863L92.0926 227.623L110.328 231.687L112.503 221.926Z" fill="black" mask="url(#path-27-inside-1)"/>
<mask id="path-29-inside-2" fill="white">
<path fill-rule="evenodd" clip-rule="evenodd" d="M101.976 227.652C105.726 231.631 107.501 237.339 106.223 243.078L106.024 243.969C104.738 249.741 100.669 254.173 95.543 256.168C97.8035 258.567 100.782 260.338 104.241 261.108C113.44 263.158 122.559 257.363 124.608 248.164L124.807 247.273C126.857 238.074 121.061 228.955 111.862 226.906C108.435 226.142 105.019 226.467 101.976 227.652Z"/>
</mask>
<path fill-rule="evenodd" clip-rule="evenodd" d="M101.976 227.652C105.726 231.631 107.501 237.339 106.223 243.078L106.024 243.969C104.738 249.741 100.669 254.173 95.543 256.168C97.8035 258.567 100.782 260.338 104.241 261.108C113.44 263.158 122.559 257.363 124.608 248.164L124.807 247.273C126.857 238.074 121.061 228.955 111.862 226.906C108.435 226.142 105.019 226.467 101.976 227.652Z" fill="black"/>
<path d="M106.223 243.078L111.103 244.166L111.103 244.166L106.223 243.078ZM101.976 227.652L100.163 222.992L93.25 225.682L98.3373 231.081L101.976 227.652ZM106.024 243.969L101.144 242.882L101.144 242.882L106.024 243.969ZM95.543 256.168L93.7296 251.509L86.8168 254.199L91.9041 259.597L95.543 256.168ZM104.241 261.108L103.154 265.989L103.154 265.989L104.241 261.108ZM124.608 248.164L129.489 249.251L129.489 249.251L124.608 248.164ZM124.807 247.273L119.927 246.185L119.927 246.185L124.807 247.273ZM111.862 226.906L112.95 222.025L111.862 226.906ZM111.103 244.166C112.757 236.74 110.454 229.357 105.615 224.222L98.3373 231.081C100.999 233.905 102.245 237.938 101.342 241.991L111.103 244.166ZM110.904 245.057L111.103 244.166L101.342 241.991L101.144 242.882L110.904 245.057ZM97.3564 260.828C103.97 258.254 109.24 252.525 110.904 245.057L101.144 242.882C100.235 246.958 97.3676 250.093 93.7296 251.509L97.3564 260.828ZM91.9041 259.597C94.8291 262.701 98.6874 264.994 103.154 265.989L105.329 256.228C102.876 255.682 100.778 254.433 99.1818 252.739L91.9041 259.597ZM103.154 265.989C115.048 268.639 126.839 261.145 129.489 249.251L119.728 247.076C118.279 253.58 111.832 257.677 105.329 256.228L103.154 265.989ZM129.489 249.251L129.687 248.36L119.927 246.185L119.728 247.076L129.489 249.251ZM129.687 248.36C132.337 236.466 124.844 224.675 112.95 222.025L110.775 231.786C117.278 233.235 121.376 239.682 119.927 246.185L129.687 248.36ZM112.95 222.025C108.525 221.039 104.101 221.459 100.163 222.992L103.79 232.311C105.938 231.475 108.345 231.244 110.775 231.786L112.95 222.025Z" fill="black" mask="url(#path-29-inside-2)"/>
<line x1="18" y1="396.5" x2="501" y2="396.5" stroke="black" stroke-width="5"/>
<g filter="url(#filter1_d)">
<circle cx="47" cy="368" r="28" fill="white"/>
<circle cx="47" cy="368" r="25.5" stroke="black" stroke-width="5" stroke-linecap="round"/>
</g>
<mask id="path-34-inside-3" fill="white">
<path fill-rule="evenodd" clip-rule="evenodd" d="M99.1243 189.04C110.35 181.343 117.714 168.424 117.714 153.785C117.714 131.279 78.8362 66.2461 75.2622 60.3153C75.0819 60.0161 74.7865 59.881 74.4372 59.881H58.5097C58.0774 59.881 57.7081 60.1161 57.5741 60.5271C55.1304 68.0237 32.2852 138.516 32.2852 153.785C32.2852 169.947 41.2606 184.012 54.4987 191.268L50.6277 211.326H107.001L99.1243 189.04Z"/>
</mask>
<path fill-rule="evenodd" clip-rule="evenodd" d="M99.1243 189.04C110.35 181.343 117.714 168.424 117.714 153.785C117.714 131.279 78.8362 66.2461 75.2622 60.3153C75.0819 60.0161 74.7865 59.881 74.4372 59.881H58.5097C58.0774 59.881 57.7081 60.1161 57.5741 60.5271C55.1304 68.0237 32.2852 138.516 32.2852 153.785C32.2852 169.947 41.2606 184.012 54.4987 191.268L50.6277 211.326H107.001L99.1243 189.04Z" fill="black"/>
<path d="M99.1243 189.04L96.297 184.916L93.131 187.087L94.4101 190.706L99.1243 189.04ZM75.2622 60.3153L79.5447 57.7346L79.5447 57.7345L75.2622 60.3153ZM57.5741 60.5271L52.8203 58.9774L52.8203 58.9775L57.5741 60.5271ZM54.4987 191.268L59.4081 192.215L60.0989 188.635L56.9019 186.883L54.4987 191.268ZM50.6277 211.326L45.7183 210.379L44.5706 216.326H50.6277V211.326ZM107.001 211.326V216.326H114.071L111.715 209.66L107.001 211.326ZM112.714 153.785C112.714 166.706 106.221 178.112 96.297 184.916L101.952 193.164C114.479 184.575 122.714 170.142 122.714 153.785H112.714ZM70.9797 62.896C72.7452 65.8256 83.2905 83.4539 93.38 103.117C98.4279 112.955 103.318 123.218 106.934 132.359C110.633 141.708 112.714 149.203 112.714 153.785H122.714C122.714 147.114 119.936 138.041 116.233 128.68C112.448 119.113 107.396 108.527 102.277 98.5519C92.034 78.5893 81.3533 60.7357 79.5447 57.7346L70.9797 62.896ZM74.4372 64.881C73.9724 64.881 73.3305 64.7903 72.6478 64.4433C71.9356 64.0814 71.3628 63.5317 70.9797 62.896L79.5447 57.7345C78.2925 55.6566 76.1892 54.881 74.4372 54.881V64.881ZM58.5097 64.881H74.4372V54.881H58.5097V64.881ZM62.3279 62.0767C61.7067 63.9826 59.9563 64.881 58.5097 64.881V54.881C56.1986 54.881 53.7095 56.2496 52.8203 58.9774L62.3279 62.0767ZM37.2852 153.785C37.2852 150.681 38.5388 144.014 40.7485 135.019C42.9025 126.252 45.8108 115.856 48.8103 105.652C54.8065 85.2526 61.1111 65.8095 62.3279 62.0767L52.8203 58.9775C51.5934 62.7412 45.2536 82.2926 39.2162 102.831C36.1989 113.096 33.2431 123.655 31.0373 132.633C28.8872 141.385 27.2852 149.255 27.2852 153.785H37.2852ZM56.9019 186.883C45.2005 180.469 37.2852 168.048 37.2852 153.785H27.2852C27.2852 171.845 37.3206 187.554 52.0954 195.652L56.9019 186.883ZM55.5371 212.274L59.4081 192.215L49.5893 190.32L45.7183 210.379L55.5371 212.274ZM107.001 206.326H50.6277V216.326H107.001V206.326ZM94.4101 190.706L102.287 212.992L111.715 209.66L103.839 187.374L94.4101 190.706Z" fill="black" mask="url(#path-34-inside-3)"/>
<path fill-rule="evenodd" clip-rule="evenodd" d="M32.4551 364.13C33.7616 365.408 35.5496 366.196 37.5216 366.196C41.5234 366.196 44.7674 362.952 44.7674 358.95C44.7674 357.147 44.1084 355.497 43.0179 354.229C43.9424 354.036 44.9004 353.934 45.8822 353.934C53.5779 353.934 59.8164 360.173 59.8164 367.868C59.8164 375.564 53.5779 381.802 45.8822 381.802C38.1866 381.802 31.9481 375.564 31.9481 367.868C31.9481 366.573 32.1247 365.32 32.4551 364.13Z" fill="black"/>
<path d="M65.268 251.275L55.5171 257.979C54.4232 258.731 52.9268 258.454 52.1747 257.36C49.0276 252.783 50.1872 246.521 54.7647 243.374L59.5091 240.112C61.6262 238.656 64.5224 239.193 65.9779 241.31L66.8725 242.611C68.822 245.447 68.1037 249.326 65.268 251.275Z" fill="#C4C4C4" stroke="black" stroke-width="5"/>
<rect x="71.5" y="271.5" width="17" height="14" rx="7" fill="#C4C4C4" stroke="black" stroke-width="5"/>
<rect x="62.5" y="296.5" width="17" height="14" rx="7" fill="#C4C4C4" stroke="black" stroke-width="5"/>
<mask id="path-40-inside-4" fill="white">
<path fill-rule="evenodd" clip-rule="evenodd" d="M80.8706 188.917C92.6396 181.31 100.429 168.074 100.429 153.018C100.429 131.373 64.4708 70.3952 58.5386 60.4827C58.1534 59.8391 57.2759 59.8391 56.8907 60.4827C50.9585 70.3952 15 131.373 15 153.018C15 168.233 22.9552 181.59 34.9332 189.156L27.9993 211.326H88.4994L80.8706 188.917Z"/>
</mask>
<path fill-rule="evenodd" clip-rule="evenodd" d="M80.8706 188.917C92.6396 181.31 100.429 168.074 100.429 153.018C100.429 131.373 64.4708 70.3952 58.5386 60.4827C58.1534 59.8391 57.2759 59.8391 56.8907 60.4827C50.9585 70.3952 15 131.373 15 153.018C15 168.233 22.9552 181.59 34.9332 189.156L27.9993 211.326H88.4994L80.8706 188.917Z" fill="white"/>
<path d="M80.8706 188.917L78.1564 184.718L74.8801 186.835L76.1373 190.528L80.8706 188.917ZM58.5386 60.4827L54.2482 63.0503L54.2482 63.0504L58.5386 60.4827ZM56.8907 60.4827L61.181 63.0504L61.181 63.0503L56.8907 60.4827ZM34.9332 189.156L39.7052 190.649L40.8522 186.981L37.6035 184.929L34.9332 189.156ZM27.9993 211.326L23.2273 209.834L21.1967 216.326H27.9993V211.326ZM88.4994 211.326V216.326H95.4833L93.2326 209.715L88.4994 211.326ZM95.4292 153.018C95.4292 166.306 88.5606 177.993 78.1564 184.718L83.5847 193.116C96.7185 184.627 105.429 169.841 105.429 153.018H95.4292ZM54.2482 63.0504C57.192 67.9694 67.5958 85.5764 77.2491 104.612C82.0787 114.136 86.6777 123.933 90.0574 132.632C93.5126 141.525 95.4292 148.626 95.4292 153.018H105.429C105.429 146.587 102.851 137.948 99.3786 129.011C95.8308 119.879 91.0694 109.755 86.1678 100.089C76.3589 80.7465 65.8173 62.9085 62.8289 57.9151L54.2482 63.0504ZM61.181 63.0503C59.6253 65.6499 55.8039 65.6499 54.2482 63.0503L62.8289 57.9151C60.5029 54.0283 54.9264 54.0283 52.6003 57.9151L61.181 63.0503ZM20 153.018C20 148.626 21.9166 141.525 25.3718 132.632C28.7516 123.933 33.3505 114.136 38.1801 104.612C47.8334 85.5764 58.2372 67.9693 61.181 63.0504L52.6003 57.9151C49.6119 62.9085 39.0704 80.7465 29.2614 100.089C24.3598 109.755 19.5984 119.879 16.0506 129.011C12.5782 137.948 10 146.587 10 153.018H20ZM37.6035 184.929C27.0147 178.24 20 166.446 20 153.018H10C10 170.019 18.8957 184.939 32.2628 193.384L37.6035 184.929ZM32.7714 212.819L39.7052 190.649L30.1611 187.664L23.2273 209.834L32.7714 212.819ZM88.4994 206.326H27.9993V216.326H88.4994V206.326ZM76.1373 190.528L83.7661 212.938L93.2326 209.715L85.6038 187.306L76.1373 190.528Z" fill="black" mask="url(#path-40-inside-4)"/>
<line x1="57.7148" y1="68" x2="57.7148" y2="153" stroke="black" stroke-width="6"/>
<circle cx="57.5" cy="152.5" r="12" fill="black" stroke="black" stroke-width="5"/>
<circle cx="8.5" cy="66.5" r="6" fill="#C4C4C4" stroke="black" stroke-width="5" stroke-linecap="round"/>
<circle cx="115.5" cy="68.5" r="6" fill="#C4C4C4" stroke="black" stroke-width="5" stroke-linecap="round"/>
<circle cx="89" cy="32" r="7.5" fill="#C4C4C4" stroke="black" stroke-width="5" stroke-linecap="round"/>
<circle cx="39" cy="11" r="8.5" fill="#C4C4C4" stroke="black" stroke-width="5" stroke-linecap="round"/>
<defs>
<filter id="filter0_d" x="136" y="86" width="298" height="248" filterUnits="userSpaceOnUse" color-interpolation-filters="sRGB">
<feFlood flood-opacity="0" result="BackgroundImageFix"/>
<feColorMatrix in="SourceAlpha" type="matrix" values="0 0 0 0 0 0 0 0 0 0 0 0 0 0 0 0 0 0 127 0"/>
<feOffset dx="50"/>
<feColorMatrix type="matrix" values="0 0 0 0 0.0333333 0 0 0 0 0.0166667 0 0 0 0 0.05 0 0 0 1 0"/>
<feBlend mode="normal" in2="BackgroundImageFix" result="effect1_dropShadow"/>
<feBlend mode="normal" in="SourceGraphic" in2="effect1_dropShadow" result="shape"/>
</filter>
<filter id="filter1_d" x="19" y="340" width="64" height="56" filterUnits="userSpaceOnUse" color-interpolation-filters="sRGB">
<feFlood flood-opacity="0" result="BackgroundImageFix"/>
<feColorMatrix in="SourceAlpha" type="matrix" values="0 0 0 0 0 0 0 0 0 0 0 0 0 0 0 0 0 0 127 0"/>
<feOffset dx="8"/>
<feColorMatrix type="matrix" values="0 0 0 0 0.0333333 0 0 0 0 0.0166667 0 0 0 0 0.05 0 0 0 1 0"/>
<feBlend mode="normal" in2="BackgroundImageFix" result="effect1_dropShadow"/>
<feBlend mode="normal" in="SourceGraphic" in2="effect1_dropShadow" result="shape"/>
</filter>
</defs>
</svg>
